#!OML:ASF F:\VICON\USERDATA\INSTALL\rory3\rory3.ASF
:FULLY-SPECIFIED
:DEGREES
19
root -1.1955322755271767 17.76049829837464 -11.529191020021127 2.9169881263710344 5.350408446536551 -0.5154659112991523
lfemur -34.26409357391612 5.387433480531694 -25.436195038758605
ltibia 35.214108829266294
lfoot -2.8628165422332366 -17.29309078210973
ltoes -12.223498962632753
rfemur 6.374340340676552 5.682235456943204 31.035193430114898
rtibia 75.46279636033464
rfoot 18.908992992608738 -11.490993849945287
rtoes 8.229846828969224
lowerback 14.573005059208924 1.9342528512802062 1.6613381908620835
upperback -0.03646489656270813 2.861964241171539 0.14043103107255006
thorax -8.151314789500956 1.3191137652329834 -1.3978134265992375
lowerneck -18.150407049506697 -6.606825506187829 -1.6191151335654395
upperneck 14.658194021515378 -9.374585689529795 4.266073480123287
head 7.784924527888107 -4.133295136867816 0.5424374530612219
lclavicle 1.1641096254457944e-16 1.6716104776867302e-15
lhumerus -67.44418834054377 -1.4736831766277207 93.84789486167408
lradius 108.27399612489864
lwrist 32.742908840558115
lhand -28.10760257381284 0.17183533513944305
lfingers 7.125019999999998
lthumb -1.489842650377811 30.14640417786766
rclavicle 1.1641096254457944e-16 1.6716104776867302e-15
rhumerus -32.191607359306744 15.825294605050427 -94.70960033399815
rradius 107.37299731872216
rwrist -19.583801969245933
rhand -19.71069452661386 39.33560661867848
rfingers 7.125019999999998
rthumb 6.619105424201983 9.459056653051494
20
root -1.1852625652688806 17.58160132855324 -10.512991786035418 1.9831252910519632 7.275433624149155 0.3561674839013321
lfemur -32.49169507311634 4.559865325091386 -26.134593916782666
ltibia 41.279106144903466
lfoot -7.666753556442626 -18.49958879947512
ltoes 0.002877413244648963
rfemur 2.5844426135063348 1.543182782141064 28.74679683882421
rtibia 84.54779428374366
rfoot 18.3321932611505 -10.232796523554336
rtoes 15.060892071935635
lowerback 15.755197891533172 1.381076693797946 0.8038254112705154
upperback 0.1979340738066403 1.9724078750441638 -0.08325681575615806
thorax -8.611987217720017 0.9142646884317511 -0.9956931468866398
lowerneck -17.7446094551872 -6.570725749220207 -1.8055810915395092
upperneck 14.567394570990762 -9.355525657451187 4.686680445742631
head 7.717105984561243 -4.103295449994786 0.7239812135820152
lclavicle 1.1641091666608898e-16 1.6716104475721144e-15
lhumerus -64.68379049750253 -2.936309466107572 94.97479137893532
lradius 109.18499561004359
lwrist 32.91610795262653
lhand -28.369401930335332 -0.03648943918892478
lfingers 7.125019999999998
lthumb -1.742721887786061 29.93610442743625
rclavicle 1.1641091666608898e-16 1.6716104475721144e-15
rhumerus -35.01840591991447 14.709196026361312 -95.72779634132466
rradius 103.76100023815053
rwrist -20.727898660075905
rhand -18.357802594241978 40.12040365742888
rfingers 7.125019999999998
rthumb 7.92501736966461 10.28900368633176
21
root -1.0989357792663803 17.793461025175326 -6.3431082673520365 2.237801755027766 5.29877599036578 2.200273800677124
lfemur -26.415621006986683 4.557935099156895 -27.978592271510912
ltibia 42.30201138107009
lfoot -0.23474277121646425 -18.717040649549006
ltoes -7.546837009179697
rfemur -4.227464409230993 -1.7304007638758376 26.736904480294147
rtibia 96.65978007195635
rfoot 19.179274006149658 -11.473865240816618
rtoes 12.486523237724784
lowerback 16.34094315951226 1.1739820656844602 0.5733116926512121
upperback 0.12162305677566376 1.5906379778623057 -0.34440013348743725
thorax -8.975275755844761 0.8868326245551981 -0.7182204761628299
lowerneck -18.176567244354253 -6.147281635075544 -1.705987127074739
upperneck 13.851673584288763 -8.879077803975317 4.324563729854107
head 7.532345436689989 -3.4753713249032208 0.5655832324589488
lclavicle 1.1118104422458584e-16 1.6568798999522676e-15
lhumerus -58.914925296003474 -4.148012674557773 94.28161407562922
lradius 111.23440507421361
lwrist 33.41463508730752
lhand -28.267635859653687 1.739047196833552
lfingers 7.125019999999998
lthumb -1.6885801050165585 31.629560589742262
rclavicle 1.1420857729462317e-16 1.6701122663059466e-15
rhumerus -36.238066694198096 14.393985901435148 -95.99039213654196
rradius 102.27528250065446
rwrist -21.6657211980854
rhand -18.269588086992034 40.46341214369051
rfingers 7.125019999999998
rthumb 8.065095761335192 10.839473088394065
22
root -1.0632568216033447 17.9249410857301 -5.805047171581448 2.3410868885545923 4.307879819736783 2.601549310020025
lfemur -22.496918605361955 4.7519118958628574 -28.776528455413644
ltibia 42.638338873125576
lfoot 3.8992240468795702 -18.687464152550383
ltoes -10.692788445194067
rfemur -10.176580190658814 -3.481126451062905 25.74791201670327
rtibia 107.92108040423679
rfoot 21.245242692303098 -14.626347842207513
rtoes 8.817822944326357
lowerback 16.568845650072607 0.9595912565334931 0.2200489094041268
upperback 0.3984276918363606 1.2134220325789529 -0.495759342434548
thorax -9.018212734796487 0.7536320538025715 -0.17105616034452484
lowerneck -18.50087405384813 -5.820404958996386 -1.689110093591938
upperneck 13.556394463074321 -8.44548160168592 4.3723985194747765
head 7.485602535797569 -3.0750607600862168 0.5894060822539269
lclavicle 1.1112884263482555e-16 1.6568793865454329e-15
lhumerus -52.9417077325369 -5.850046999315626 93.96161336600487
lradius 113.4346762385888
lwrist 33.48665440887564
lhand -28.20916193345114 3.5358019888038257
lfingers 7.125019999999998
lthumb -1.7130266105642422 33.32064715660588
rclavicle 1.1418255758853686e-16 1.6700939446789363e-15
rhumerus -36.93408557111786 13.961296181525661 -96.20833350817618
rradius 101.39243389246337
rwrist -22.357288726056577
rhand -18.03899741492463 40.988691588275024
rfingers 7.125019999999998
rthumb 8.18781413449454 10.756891167610602
23
root -1.0616990916994515 18.072443093727028 -5.398385392904906 2.3478851603252036 3.8306004437025805 2.7330229443104623
lfemur -19.05415941106562 5.084028994063843 -29.20920966578862
ltibia 42.45798299946654
lfoot 5.919784070218396 -18.416782179376828
ltoes -9.802790244828477
rfemur -14.749392716498157 -3.258511946657636 25.298513451155692
rtibia 115.87957894658354
rfoot 24.34675320738 -17.797434404740002
rtoes 10.474719227877229
lowerback 16.795391312050093 0.7158609355796071 -0.3093392283573778
upperback 0.3852565396868467 0.8063300640697487 -0.47188686237189426
thorax -9.031633131015184 0.6016140149275717 0.34589876249181917
lowerneck -18.725203102159867 -5.4173991536137365 -1.6792412494055284
upperneck 13.514045852997587 -8.171375577484614 4.413127284493244
head 7.517019542123654 -2.892228660222176 0.6354226035586863
lclavicle 1.1116844629062345e-16 1.6569351582632375e-15
lhumerus -46.70740939191946 -7.81314428810055 93.75360186831963
lradius 115.59555810761879
lwrist 33.31162338100594
lhand -28.20621195023017 4.855292119009155
lfingers 7.125019999999998
lthumb -1.7651437968640709 34.587077790509504
rclavicle 1.141812569277506e-16 1.6700928858947132e-15
rhumerus -37.812090317945625 13.419248568923226 -96.31126011896596
rradius 101.02186318948837
rwrist -22.421526150734145
rhand -18.424257111404433 40.87222548484604
rfingers 7.125019999999998
rthumb 7.980265090402497 11.061932460422064
24
root -1.0794456822299336 18.214161460728132 -5.021860401531571 2.21807014640416 3.6639758449799995 2.584223609786631
lfemur -16.052322413629827 4.873599188831286 -29.2146137204067
ltibia 41.8906798966667
lfoot 4.563688654403187 -18.54084710961222
ltoes -11.217050388667365
rfemur -18.665644573660362 -2.401979269784568 25.148588010343012
rtibia 119.51637950984329
rfoot 24.410605721812598 -17.731198098410246
rtoes 10.21159795730951
lowerback 16.81295739220389 0.4552309303634507 -0.7666445792647444
upperback 0.2479993554509825 0.3669542545047566 -0.36146382034567515
thorax -8.893083554874122 0.39342769747473405 0.8121020180384427
lowerneck -18.722338248898836 -5.084530686269616 -1.687324421159551
upperneck 13.463293759071789 -8.089934832273537 4.5733098436779995
head 7.4953435321640365 -2.780537126040042 0.650000861206143
lclavicle 1.110960974169207e-16 1.6569206604693144e-15
lhumerus -40.30884701554464 -9.53404317870358 93.14564683386044
lradius 117.3874832662318
lwrist 33.2595843270162
lhand -28.287469609573265 5.409146487538565
lfingers 7.125019999999998
lthumb -1.8587498269080325 35.185448783972674
rclavicle 1.1416907763666846e-16 1.6700849708323952e-15
rhumerus -39.13544667845838 12.769656673571175 -96.2382118059506
rradius 100.22417009620361
rwrist -22.369172712358896
rhand -18.654717794705835 40.74803625267181
rfingers 7.125019999999998
rthumb 7.763465674096409 11.297352932351403
25
root -1.095751235044329 18.309135684506444 -3.897755261925166 2.0347207484022722 3.7560498224469168 2.4038986808825062
lfemur -13.63085045818882 4.339312075175085 -28.948540452709217
ltibia 41.248281125517735
lfoot 4.588790966116081 -18.119718184154976
ltoes -12.350058375758714
rfemur -22.154761216325674 -1.2433510662562348 25.283023219662635
rtibia 118.66599043972818
rfoot 21.17174470937331 -14.77133190237085
rtoes 2.1321588505717193
lowerback 16.62649894301844 0.3056003750068904 -1.1852189817123535
upperback 0.1664846796076469 -0.04319221955561914 -0.06385180131652601
thorax -8.625347946360211 0.17069960818834706 1.274127871238568
lowerneck -18.786624011684818 -4.817551513714881 -1.708427627995845
upperneck 13.439610833002638 -8.121437588376455 4.766554607873253
head 7.5120704808840735 -2.752823541894113 0.7017352965982316
lclavicle 1.1105396116833254e-16 1.6568777674221592e-15
lhumerus -34.566724601034394 -10.769803583139167 91.95295599435964
lradius 118.61532598795105
lwrist 33.643417780224084
lhand -28.30412652382898 6.396015454465736
lfingers 7.125019999999998
lthumb -1.916784228031946 36.10978594432257
rclavicle 1.141485899276302e-16 1.6700709643998811e-15
rhumerus -41.198931803103775 12.1463452683147 -95.9512609695999
rradius 98.77961449430545
rwrist -22.319959894029953
rhand -18.83701227548373 40.65060445150121
rfingers 7.125019999999998
rthumb 7.546065628317706 11.065153363443411
